<svg version="1.1" viewBox="0.0 0.0 1651.6141732283465 285.48293963254594" fill="none" stroke="none" stroke-linecap="square" stroke-miterlimit="10" xmlns:xlink="http://www.w3.org/1999/xlink" xmlns="http://www.w3.org/2000/svg"><clipPath id="p.0"><path d="m0 0l1651.6141 0l0 285.48294l-1651.6141 0l0 -285.48294z" clip-rule="nonzero"/></clipPath><g clip-path="url(#p.0)"><path fill="#000000" fill-opacity="0.0" d="m0 0l1651.6141 0l0 285.48294l-1651.6141 0z" fill-rule="evenodd"/><path fill="#0097ae" d="m284.89114 285.48944l-89.500656 0l0 -190.41638l-195.3881 0l0 -95.073074l284.88876 0z" fill-rule="evenodd"/><path fill="#0097ae" d="m0 141.8234l142.70897 0l0 143.66724l-142.70897 0z" fill-rule="evenodd"/><path fill="#0097ae" d="m346.802 0.00292656l89.13229 0l0 285.48944l-89.13229 0z" fill-rule="evenodd"/><path fill="#000000" fill-opacity="0.0" d="m512.76904 -21.530184l1183.9685 0l0 394.4882l-1183.9685 0z" fill-rule="evenodd"/><path fill="#123542" d="m553.59717 0.12295348l81.640625 247.45312l0.78125 0l82.421875 -247.45312l39.453125 0l-101.5625 285.54688l-43.171875 0l-100.78125 -285.54688l41.21875 0zm370.89844 0q37.296875 0 61.125 19.734375q23.828125 19.718752 23.828125 55.0625q0 28.125 -12.3125 46.6875q-12.296875 18.546875 -37.296875 25.578125l0 0.78125q21.6875 4.296875 31.9375 20.21875q10.25 15.921875 11.8125 54.59375q0.984375 25.0 4.6875 39.265625q3.71875 14.25 11.140625 23.625l-42.390625 0q-3.515625 -4.6875 -4.59375 -9.28125q-1.0625 -4.59375 -2.046875 -12.59375l-1.5625 -31.453125q-0.578125 -22.0625 -9.46875 -44.90625q-8.890625 -22.859375 -39.15625 -23.84375l-93.953125 0l0 122.078125l-37.890625 0l0 -285.54688l136.14062 0zm-17.0 131.64062q31.640625 0 47.84375 -12.40625q16.21875 -12.40625 16.21875 -38.578125q0 -23.046875 -12.984375 -35.828125q-12.984375 -12.796875 -36.421875 -12.796875l-95.90625 0l0 99.609375l81.25 0zm274.41406 -131.64062l111.53125 285.54688l-42.0 0l-31.046875 -85.9375l-120.90625 0l-32.03125 85.9375l-39.0625 0l111.53125 -285.54688l41.984375 0zm-22.0625 34.375l-48.25 133.20312l96.6875 0l-47.46875 -133.20312l-0.96875 0zm201.16406 -34.375l0 285.54688l-37.890625 0l0 -285.54688l37.890625 0zm104.109375 0l150.39062 231.64062l0.78125 0l0 -231.64062l35.9375 0l0 285.54688l-41.609375 0l-149.21875 -229.29688l-0.78125 0l0 229.29688l-35.9375 0l0 -285.54688l40.4375 0z" fill-rule="nonzero"/></g></svg>